<svg data-v-fde0c5aa="" xmlns="http://www.w3.org/2000/svg" viewBox="0 0 300 300" class="iconLeft"><!----><defs data-v-fde0c5aa=""><!----></defs><rect data-v-fde0c5aa="" fill="transparent" x="0" y="0" width="300px" height="300px" class="logo-background-square"></rect><defs data-v-fde0c5aa=""><!----></defs><g data-v-fde0c5aa="" id="2222f4c1-0b6d-4700-90a8-6cd9ce2c3f02" fill="#000000" transform="matrix(2.3094530770783246,0,0,2.3094530770783246,91.08659564343834,134.12250926916172)"><path d="M5.99 6.15L5.99 6.15Q6.30 6.15 6.50 6.33L6.50 6.33L6.50 6.33Q6.71 6.52 6.71 6.82L6.71 6.82L6.71 6.82Q6.71 7.11 6.50 7.30L6.50 7.30L6.50 7.30Q6.30 7.49 5.99 7.49L5.99 7.49L1.97 7.49L1.97 11.61L1.97 11.61Q1.97 11.91 1.76 12.12L1.76 12.12L1.76 12.12Q1.55 12.33 1.25 12.33L1.25 12.33L1.25 12.33Q0.94 12.33 0.73 12.12L0.73 12.12L0.73 12.12Q0.52 11.91 0.52 11.61L0.52 11.61L0.52 2.13L0.52 2.13Q0.52 1.81 0.73 1.60L0.73 1.60L0.73 1.60Q0.94 1.40 1.25 1.40L1.25 1.40L7.57 1.40L7.57 1.40Q7.90 1.40 8.09 1.59L8.09 1.59L8.09 1.59Q8.29 1.78 8.29 2.09L8.29 2.09L8.29 2.09Q8.29 2.38 8.09 2.56L8.09 2.56L8.09 2.56Q7.90 2.74 7.57 2.74L7.57 2.74L1.97 2.74L1.97 6.15L5.99 6.15ZM10.15 5.39L10.15 5.39Q10.15 5.07 10.35 4.87L10.35 4.87L10.35 4.87Q10.56 4.68 10.86 4.68L10.86 4.68L10.86 4.68Q11.19 4.68 11.38 4.87L11.38 4.87L11.38 4.87Q11.58 5.07 11.58 5.39L11.58 5.39L11.58 11.62L11.58 11.62Q11.58 11.93 11.38 12.13L11.38 12.13L11.38 12.13Q11.19 12.33 10.86 12.33L10.86 12.33L10.86 12.33Q10.56 12.33 10.35 12.13L10.35 12.13L10.35 12.13Q10.15 11.93 10.15 11.62L10.15 11.62L10.15 5.39ZM10.86 1.58L10.86 1.58Q11.24 1.58 11.52 1.85L11.52 1.85L11.52 1.85Q11.79 2.13 11.79 2.51L11.79 2.51L11.79 2.51Q11.79 2.88 11.52 3.16L11.52 3.16L11.52 3.16Q11.24 3.43 10.86 3.43L10.86 3.43L10.86 3.43Q10.49 3.43 10.21 3.16L10.21 3.16L10.21 3.16Q9.94 2.88 9.94 2.51L9.94 2.51L9.94 2.51Q9.94 2.13 10.21 1.85L10.21 1.85L10.21 1.85Q10.49 1.58 10.86 1.58L10.86 1.58ZM17.50 10.93L17.50 10.93Q17.75 10.93 17.93 11.13L17.93 11.13L17.93 11.13Q18.10 11.33 18.10 11.63L18.10 11.63L18.10 11.63Q18.10 11.94 17.87 12.14L17.87 12.14L17.87 12.14Q17.64 12.33 17.28 12.33L17.28 12.33L17.02 12.33L17.02 12.33Q16.34 12.33 15.77 11.98L15.77 11.98L15.77 11.98Q15.20 11.62 14.88 11.00L14.88 11.00L14.88 11.00Q14.56 10.39 14.56 9.62L14.56 9.62L14.56 6.16L13.92 6.16L13.92 6.16Q13.62 6.16 13.44 5.99L13.44 5.99L13.44 5.99Q13.26 5.82 13.26 5.57L13.26 5.57L13.26 5.57Q13.26 5.29 13.44 5.12L13.44 5.12L13.44 5.12Q13.62 4.96 13.92 4.96L13.92 4.96L14.56 4.96L14.56 2.94L14.56 2.94Q14.56 2.63 14.76 2.44L14.76 2.44L14.76 2.44Q14.95 2.24 15.26 2.24L15.26 2.24L15.26 2.24Q15.57 2.24 15.76 2.44L15.76 2.44L15.76 2.44Q15.96 2.63 15.96 2.94L15.96 2.94L15.96 4.96L17.15 4.96L17.15 4.96Q17.44 4.96 17.63 5.12L17.63 5.12L17.63 5.12Q17.81 5.29 17.81 5.57L17.81 5.57L17.81 5.57Q17.81 5.82 17.63 5.99L17.63 5.99L17.63 5.99Q17.44 6.16 17.15 6.16L17.15 6.16L15.96 6.16L15.96 9.62L15.96 9.62Q15.96 10.18 16.27 10.56L16.27 10.56L16.27 10.56Q16.58 10.93 17.02 10.93L17.02 10.93L17.50 10.93ZM29.50 10.91L29.50 10.91Q29.81 10.91 30.02 11.12L30.02 11.12L30.02 11.12Q30.23 11.33 30.23 11.62L30.23 11.62L30.23 11.62Q30.23 11.91 30.02 12.12L30.02 12.12L30.02 12.12Q29.81 12.33 29.50 12.33L29.50 12.33L24.32 12.33L24.32 12.33Q24.01 12.33 23.81 12.12L23.81 12.12L23.81 12.12Q23.60 11.91 23.60 11.62L23.60 11.62L23.60 11.62Q23.60 11.31 23.80 11.12L23.80 11.12L27.78 6.47L27.78 6.47Q28.66 5.46 28.66 4.72L28.66 4.72L28.66 4.72Q28.66 3.81 28.19 3.26L28.19 3.26L28.19 3.26Q27.72 2.72 26.91 2.72L26.91 2.72L26.91 2.72Q26.39 2.72 25.96 2.99L25.96 2.99L25.96 2.99Q25.52 3.26 25.28 3.72L25.28 3.72L25.28 3.72Q25.03 4.19 25.03 4.72L25.03 4.72L25.03 4.72Q25.03 5.00 24.83 5.21L24.83 5.21L24.83 5.21Q24.63 5.42 24.32 5.42L24.32 5.42L24.32 5.42Q24.02 5.42 23.81 5.21L23.81 5.21L23.81 5.21Q23.60 5.00 23.60 4.72L23.60 4.72L23.60 4.72Q23.60 3.78 24.04 3.02L24.04 3.02L24.04 3.02Q24.47 2.27 25.22 1.83L25.22 1.83L25.22 1.83Q25.97 1.40 26.91 1.40L26.91 1.40L26.91 1.40Q27.85 1.40 28.55 1.81L28.55 1.81L28.55 1.81Q29.26 2.21 29.64 2.96L29.64 2.96L29.64 2.96Q30.03 3.71 30.03 4.72L30.03 4.72L30.03 4.72Q30.03 5.33 29.67 6.00L29.67 6.00L29.67 6.00Q29.32 6.66 28.78 7.27L28.78 7.27L25.58 10.91L29.50 10.91ZM43.40 1.40L43.40 1.40Q43.69 1.40 43.88 1.59L43.88 1.59L43.88 1.59Q44.07 1.78 44.07 2.07L44.07 2.07L44.07 2.07Q44.07 2.37 43.88 2.55L43.88 2.55L43.88 2.55Q43.69 2.74 43.40 2.74L43.40 2.74L40.39 2.74L40.39 11.61L40.39 11.61Q40.39 11.91 40.18 12.12L40.18 12.12L40.18 12.12Q39.97 12.33 39.66 12.33L39.66 12.33L39.66 12.33Q39.35 12.33 39.14 12.12L39.14 12.12L39.14 12.12Q38.93 11.91 38.93 11.61L38.93 11.61L38.93 2.74L35.91 2.74L35.91 2.74Q35.62 2.74 35.43 2.55L35.43 2.55L35.43 2.55Q35.24 2.37 35.24 2.07L35.24 2.07L35.24 2.07Q35.24 1.78 35.43 1.59L35.43 1.59L35.43 1.59Q35.62 1.40 35.91 1.40L35.91 1.40L43.40 1.40ZM49.35 4.61L49.35 4.61Q50.32 4.61 51.09 5.03L51.09 5.03L51.09 5.03Q51.86 5.45 52.29 6.25L52.29 6.25L52.29 6.25Q52.72 7.06 52.72 8.19L52.72 8.19L52.72 11.63L52.72 11.63Q52.72 11.94 52.52 12.14L52.52 12.14L52.52 12.14Q52.32 12.35 52.01 12.35L52.01 12.35L52.01 12.35Q51.70 12.35 51.50 12.14L51.50 12.14L51.50 12.14Q51.30 11.94 51.30 11.63L51.30 11.63L51.30 8.19L51.30 8.19Q51.30 7.06 50.69 6.47L50.69 6.47L50.69 6.47Q50.08 5.89 49.07 5.89L49.07 5.89L49.07 5.89Q48.48 5.89 48.00 6.13L48.00 6.13L48.00 6.13Q47.52 6.37 47.24 6.78L47.24 6.78L47.24 6.78Q46.97 7.18 46.97 7.69L46.97 7.69L46.97 11.63L46.97 11.63Q46.97 11.94 46.77 12.14L46.77 12.14L46.77 12.14Q46.58 12.35 46.26 12.35L46.26 12.35L46.26 12.35Q45.95 12.35 45.74 12.14L45.74 12.14L45.74 12.14Q45.54 11.94 45.54 11.63L45.54 11.63L45.54 2.11L45.54 2.11Q45.54 1.79 45.74 1.60L45.74 1.60L45.74 1.60Q45.95 1.40 46.26 1.40L46.26 1.40L46.26 1.40Q46.58 1.40 46.77 1.60L46.77 1.60L46.77 1.60Q46.97 1.79 46.97 2.11L46.97 2.11L46.97 5.54L46.97 5.54Q47.42 5.10 48.03 4.85L48.03 4.85L48.03 4.85Q48.65 4.61 49.35 4.61L49.35 4.61ZM58.86 4.59L58.86 4.59Q59.60 4.59 60.02 4.82L60.02 4.82L60.02 4.82Q60.44 5.04 60.44 5.38L60.44 5.38L60.44 5.38Q60.44 5.47 60.42 5.52L60.42 5.52L60.42 5.52Q60.30 5.96 59.86 5.96L59.86 5.96L59.86 5.96Q59.79 5.96 59.65 5.94L59.65 5.94L59.65 5.94Q59.09 5.84 58.74 5.84L58.74 5.84L58.74 5.84Q57.74 5.84 57.12 6.30L57.12 6.30L57.12 6.30Q56.50 6.76 56.50 7.55L56.50 7.55L56.50 11.63L56.50 11.63Q56.50 11.97 56.33 12.15L56.33 12.15L56.33 12.15Q56.15 12.33 55.80 12.33L55.80 12.33L55.80 12.33Q55.47 12.33 55.29 12.16L55.29 12.16L55.29 12.16Q55.10 11.98 55.10 11.63L55.10 11.63L55.10 5.38L55.10 5.38Q55.10 5.04 55.29 4.86L55.29 4.86L55.29 4.86Q55.47 4.68 55.80 4.68L55.80 4.68L55.80 4.68Q56.50 4.68 56.50 5.38L56.50 5.38L56.50 5.64L56.50 5.64Q56.92 5.15 57.54 4.87L57.54 4.87L57.54 4.87Q58.16 4.59 58.86 4.59L58.86 4.59ZM62.05 5.39L62.05 5.39Q62.05 5.07 62.25 4.87L62.25 4.87L62.25 4.87Q62.45 4.68 62.76 4.68L62.76 4.68L62.76 4.68Q63.08 4.68 63.28 4.87L63.28 4.87L63.28 4.87Q63.48 5.07 63.48 5.39L63.48 5.39L63.48 11.62L63.48 11.62Q63.48 11.93 63.28 12.13L63.28 12.13L63.28 12.13Q63.08 12.33 62.76 12.33L62.76 12.33L62.76 12.33Q62.45 12.33 62.25 12.13L62.25 12.13L62.25 12.13Q62.05 11.93 62.05 11.62L62.05 11.62L62.05 5.39ZM62.76 1.58L62.76 1.58Q63.14 1.58 63.41 1.85L63.41 1.85L63.41 1.85Q63.69 2.13 63.69 2.51L63.69 2.51L63.69 2.51Q63.69 2.88 63.41 3.16L63.41 3.16L63.41 3.16Q63.14 3.43 62.76 3.43L62.76 3.43L62.76 3.43Q62.38 3.43 62.11 3.16L62.11 3.16L62.11 3.16Q61.84 2.88 61.84 2.51L61.84 2.51L61.84 2.51Q61.84 2.13 62.11 1.85L62.11 1.85L62.11 1.85Q62.38 1.58 62.76 1.58L62.76 1.58ZM65.86 2.10L65.86 2.10Q65.86 1.79 66.05 1.60L66.05 1.60L66.05 1.60Q66.25 1.40 66.56 1.40L66.56 1.40L66.56 1.40Q66.86 1.40 67.06 1.60L67.06 1.60L67.06 1.60Q67.26 1.79 67.26 2.10L67.26 2.10L67.26 9.74L67.26 9.74Q67.26 10.26 67.45 10.60L67.45 10.60L67.45 10.60Q67.65 10.93 67.96 10.93L67.96 10.93L68.31 10.93L68.31 10.93Q68.59 10.93 68.76 11.13L68.76 11.13L68.76 11.13Q68.94 11.33 68.94 11.63L68.94 11.63L68.94 11.63Q68.94 11.94 68.67 12.14L68.67 12.14L68.67 12.14Q68.40 12.33 67.98 12.33L67.98 12.33L67.96 12.33L67.96 12.33Q67.35 12.33 66.87 12.00L66.87 12.00L66.87 12.00Q66.39 11.68 66.12 11.08L66.12 11.08L66.12 11.08Q65.86 10.49 65.86 9.74L65.86 9.74L65.86 2.10ZM70.06 2.10L70.06 2.10Q70.06 1.79 70.25 1.60L70.25 1.60L70.25 1.60Q70.45 1.40 70.76 1.40L70.76 1.40L70.76 1.40Q71.06 1.40 71.26 1.60L71.26 1.60L71.26 1.60Q71.46 1.79 71.46 2.10L71.46 2.10L71.46 9.74L71.46 9.74Q71.46 10.26 71.65 10.60L71.65 10.60L71.65 10.60Q71.85 10.93 72.16 10.93L72.16 10.93L72.51 10.93L72.51 10.93Q72.79 10.93 72.96 11.13L72.96 11.13L72.96 11.13Q73.14 11.33 73.14 11.63L73.14 11.63L73.14 11.63Q73.14 11.94 72.87 12.14L72.87 12.14L72.87 12.14Q72.60 12.33 72.18 12.33L72.18 12.33L72.16 12.33L72.16 12.33Q71.55 12.33 71.07 12.00L71.07 12.00L71.07 12.00Q70.59 11.68 70.32 11.08L70.32 11.08L70.32 11.08Q70.06 10.49 70.06 9.74L70.06 9.74L70.06 2.10Z"></path></g><defs data-v-fde0c5aa=""><linearGradient data-v-fde0c5aa="" gradientTransform="rotate(25)" id="ff8b7276-7762-4281-abb2-cb085b43fe5c" x1="0%" y1="0%" x2="100%" y2="0%"><stop data-v-fde0c5aa="" offset="0%" stop-color="#E90DCA" stop-opacity="1"></stop><stop data-v-fde0c5aa="" offset="100%" stop-color="#1536F1" stop-opacity="1"></stop></linearGradient></defs><g data-v-fde0c5aa="" id="563387e7-0f68-4f83-81fa-ebebd9bdf9c6" stroke="none" fill="url(#ff8b7276-7762-4281-abb2-cb085b43fe5c)" transform="matrix(1.3547417654989566,0,0,1.3547417654989566,40,131.0336152830146)"><circle cx="14.5" cy="8.5" r="3.5"></circle><path d="M26 3H3V0H0v7h3V4h3v8a1 1 0 0 0 1 1h4v5H8a2 2 0 0 0-2 2v7a1 1 0 0 0 1 1h1a1 1 0 0 0 1-1v-5h11v5a1 1 0 0 0 1 1h1a1 1 0 0 0 1-1v-7a2 2 0 0 0-2-2h-3v-5h4a1 1 0 0 0 1-1V4h3v3h3V0h-3v3zm-6 7h-1.276c-.621 1.742-2.27 3-4.224 3-1.953 0-3.603-1.258-4.224-3H9V4h11v6z"></path></g><!----></svg>